<?xml version="1.0" standalone="no"?>
<!DOCTYPE svg PUBLIC "-//W3C//DTD SVG 20010904//EN" "http://www.w3.org/TR/2001/REC-SVG-20010904/DTD/svg10.dtd">
<!-- Created using Krita: https://krita.org -->
<svg xmlns="http://www.w3.org/2000/svg" 
    xmlns:xlink="http://www.w3.org/1999/xlink"
    xmlns:krita="http://krita.org/namespaces/svg/krita"
    xmlns:sodipodi="http://sodipodi.sourceforge.net/DTD/sodipodi-0.dtd"
    width="96pt"
    height="96pt"
    viewBox="0 0 96 96">
<defs/>
<circle id="shape0" transform="matrix(1.40118583751886 0 0 1.40118583751886 -7.85597451768 -7.67051695709204)" r="40.8" cx="40.8" cy="40.8" fill="#fe8b68" fill-rule="evenodd"/><g id="group0" transform="matrix(1.40118583751886 0 0 1.40118583751886 -2.54707704359773 10.7224301408218)" fill="none">
  <path id="shape1" transform="matrix(0.713681207177158 0 0 0.713681207177159 -6.84555830258641 -2.37939038656866)" fill="#ffffff" fill-rule="evenodd" d="M15.6 31.4346L15.89 31.6851L16.2496 31.9267L16.6767 32.1595L17.1689 32.3836L17.7241 32.5988L18.3399 32.8054L19.0141 33.0032L19.7444 33.1925L20.5287 33.3731L21.3646 33.5452L22.2498 33.7087L23.1822 33.8638L24.1595 34.0104L25.1793 34.1486L26.2396 34.2785L27.3379 34.4L28.4721 34.5132L29.6399 34.6182L30.8391 34.715L32.0673 34.8036L33.3223 34.8841L34.602 34.9564L35.9039 35.0208L37.2259 35.0771L38.5658 35.1254L39.9212 35.1658L41.2899 35.1983L42.6696 35.2229L44.0581 35.2397L45.4532 35.2487L46.8526 35.25L48.2539 35.2436L49.6551 35.2295L51.0538 35.2077L52.4477 35.1784L53.8347 35.1416L55.2124 35.0972L56.5786 35.0454L57.931 34.9861L59.2674 34.9194L60.5856 34.8454L61.8833 34.764L63.1581 34.6754L64.408 34.5796L65.6305 34.4765L66.8235 34.3663L67.9847 34.2489L69.1119 34.1245L70.2028 33.993L71.2551 33.8546L72.2666 33.7091L73.235 33.5567L74.1581 33.3975L75.0336 33.2314L75.8592 33.0585L76.6328 32.8788L77.3521 32.6923L78.0147 32.4992L78.6185 32.2994L79.1612 32.093L79.6405 31.8801L80.0542 31.6606L80.4 31.4346L74.4 89.2702L74.24 89.5858L74.015 89.8913L73.7271 90.1866L73.3784 90.4716L72.971 90.7465L72.5072 91.0113L71.9889 91.2658L71.4183 91.5102L70.7976 91.7444L70.1288 91.9685L69.4141 92.1824L68.6556 92.3861L67.8554 92.5797L67.0157 92.7632L66.1386 92.9365L65.2261 93.0997L64.2804 93.2528L63.3037 93.3957L62.298 93.5285L61.2655 93.6513L60.2083 93.7638L59.1285 93.8663L58.0283 93.9587L56.9097 94.041L55.7749 94.1132L54.626 94.1753L53.4651 94.2273L52.2944 94.2692L51.1159 94.3011L49.9319 94.3229L48.7443 94.3346L47.5554 94.3362L46.3673 94.3278L45.182 94.3093L44.0018 94.2808L42.8286 94.2422L41.6647 94.1936L40.5122 94.135L39.3732 94.0663L38.2498 93.9876L37.1441 93.8988L36.0582 93.8001L34.9944 93.6913L33.9546 93.5725L32.9411 93.4437L31.9559 93.3049L31.0012 93.1561L30.079 92.9973L29.1916 92.8285L28.341 92.6497L27.5293 92.4609L26.7587 92.2621L26.0314 92.0534L25.3493 91.8347L24.7147 91.6061L24.1296 91.3674L23.5962 91.1189L23.1166 90.8603L22.6929 90.5918L22.3273 90.3134L22.0219 90.025L21.7787 89.7267L21.6 89.4185L15.6 31.4346M38.4 43.9132L38.3461 44.3103L38.1844 44.8264L38.0105 45.2937L37.92 45.5445L37.8675 45.7278L37.815 45.9285L37.7625 46.1468L37.71 46.3825L37.6575 46.6357L37.605 46.9064L37.5525 47.1946L37.5 47.5002L37.4475 47.8233L37.395 48.1639L37.3425 48.522L37.3425 77.9932L37.3746 78.3647L37.4708 78.7091L37.6313 79.0264L37.8478 79.4403L37.92 79.7707L37.9132 80.2265L37.8928 80.6487L37.8587 81.0375L37.811 81.3927L37.7497 81.7144L37.6748 82.0026L37.5862 82.2574L37.484 82.4786L37.3682 82.6663L37.2388 82.8205L37.0957 82.9411L36.9391 83.0283L36.7687 83.082L36.6876 83.0922L36.5769 83.0926L36.4367 83.0835L36.2669 83.0646L36.0676 83.0361L35.8387 82.9979L35.5802 82.95L35.2922 82.8924L34.9746 82.8252L34.6275 82.7483L34.2508 82.6617L33.8445 82.5654L33.4087 82.4595L32.9832 82.3514L32.5841 82.2467L32.2115 82.1455L31.8653 82.0478L31.5455 81.9534L31.2522 81.8626L30.9853 81.7751L30.7449 81.6911L30.5309 81.6106L30.3433 81.5335L30.1822 81.4598L30.0475 81.3896L29.9393 81.3228L29.8575 81.2595L29.5344 80.9587L29.27 80.6662L29.0644 80.382L28.9175 80.1062L28.8294 79.8387L28.8 79.5795L28.8478 79.3732L28.9913 79.1445L29.1347 78.8211L29.1825 78.3307L29.1825 44.4907L29.1408 44.1964L28.8905 43.5851L28.8488 43.2907L28.9241 42.9282L29.0875 42.6082L29.3391 42.3307L29.6788 42.0957L30.1066 41.9032L30.6225 41.7532L30.7727 41.7327L30.9588 41.7181L31.181 41.7093L31.4391 41.7064L31.7331 41.7093L32.0632 41.7181L32.4292 41.7327L32.8313 41.7532L33.123 41.7753L33.4078 41.7999L33.6858 41.8268L33.9569 41.8561L34.221 41.8878L34.4783 41.922L34.7287 41.9586L34.9723 41.9975L35.2089 42.0389L35.4386 42.0827L35.6615 42.1289L35.8775 42.1775L36.0866 42.2286L36.2888 42.282L36.7836 42.4338L37.2124 42.6005L37.5753 42.7821L37.8722 42.9786L38.1031 43.1899L38.268 43.4161L38.367 43.6573L38.4 43.9132M66.8419 62.995L66.8756 63.283L66.9019 63.571L66.9206 63.859L66.9319 64.147L66.9356 64.435L66.933 64.6567L66.9251 64.8794L66.912 65.1031L66.8935 65.3277L66.8699 65.5533L66.8409 65.7799L66.8067 66.0074L66.7673 66.2359L66.7226 66.4654L66.6726 66.6958L66.6174 66.9272L66.5569 67.1595L66.4911 67.3929L66.4201 67.6272L66.3438 67.8624L66.2623 68.0987L66.1755 68.3359L66.0834 68.574L65.9861 68.8132L65.8835 69.0532L65.7757 69.2943L65.6626 69.5363L65.5442 69.7793L65.4206 70.0233L65.2917 70.2682L65.1576 70.5141L65.0182 70.761L64.8735 71.0088L64.7236 71.2576L64.5684 71.5074L64.408 71.7581L64.2423 72.0098L64.0713 72.2624L63.8951 72.5161L63.7136 72.7707L63.5269 73.0262L63.33 73.2893L63.1299 73.5505L62.9267 73.8097L62.7202 74.0669L62.5106 74.3222L62.2978 74.5756L62.0817 74.8269L61.8625 75.0763L61.6401 75.3237L61.4144 75.5692L61.1856 75.8127L60.9536 76.0543L60.7184 76.2939L60.48 76.5315L60.2384 76.7672L59.9936 77.0009L59.7456 77.2327L59.4944 77.4624L59.2401 77.6903L58.9825 77.9161L58.7217 78.14L58.4578 78.362L58.1906 78.582L57.9202 78.8L57.6467 79.016L57.3699 79.2301L57.09 79.4423L56.8069 79.6525L56.4482 79.9094L56.1014 80.1521L55.7662 80.3807L55.4428 80.5951L55.1311 80.7953L54.8311 80.9813L54.5429 81.1532L54.2665 81.3109L54.0017 81.4544L53.7488 81.5837L53.5075 81.6989L53.278 81.7999L53.0602 81.8867L52.8542 81.9593L52.6598 82.0178L52.4773 82.0621L52.3064 82.0922L52.1474 82.1081L52 82.1099L51.8644 82.0975L51.7222 82.0753L51.5701 82.0451L51.4079 82.007L51.2357 81.961L51.0534 81.907L50.8612 81.8451L50.659 81.7752L50.4467 81.6973L50.2244 81.6115L49.9921 81.5178L49.7498 81.4161L49.4974 81.3064L49.2351 81.1888L48.9627 81.0633L48.6803 80.9298L48.3879 80.7883L48.0855 80.6389L47.773 80.4816L47.4506 80.3163L47.1181 80.143L46.7756 79.9618L46.3327 79.7236L45.916 79.4949L45.5256 79.2757L45.1615 79.0662L44.8236 78.8662L44.5121 78.6757L44.2268 78.4949L43.9678 78.3236L43.7351 78.1618L43.5287 78.0096L43.3485 77.867L43.1946 77.734L43.067 77.6105L42.9657 77.4966L42.8906 77.3922L42.8419 77.2975L42.7688 77.094L42.7444 76.8662L42.7866 76.5357L42.9131 76.1218L43.0397 75.7201L43.0819 75.4262L43.0819 44.3237L43.1149 44.1435L43.2138 43.9874L43.3788 43.8553L43.6097 43.7471L43.9066 43.6631L44.2695 43.603L44.6983 43.567L45.1931 43.555L45.5065 43.5603L45.8065 43.5762L46.0931 43.6028L46.3665 43.64L46.6265 43.6878L46.8731 43.7462L47.0713 43.6216L47.274 43.4981L47.4811 43.3759L47.6927 43.2548L47.9088 43.1349L48.1293 43.0162L48.3542 42.8987L48.5836 42.7824L48.8175 42.6672L49.0559 42.5532L49.2986 42.4404L49.5459 42.3288L49.7976 42.2184L50.0538 42.1092L50.3144 42.0011L50.5795 41.8943L50.8491 41.7886L51.1231 41.6841L51.4015 41.5808L51.6845 41.4786L51.9719 41.3777L52.2637 41.2779L52.56 41.1793L52.8444 41.0874L53.1254 40.9993L53.4029 40.9152L53.677 40.835L53.9477 40.7587L54.215 40.6863L54.4789 40.6179L54.7394 40.5533L54.9964 40.4926L55.25 40.4359L55.5002 40.3831L55.747 40.3342L55.9904 40.2892L56.2304 40.2481L56.4669 40.2109L56.7 40.1777L56.9297 40.1483L57.156 40.1229L57.3788 40.1014L57.5983 40.0838L57.8143 40.0701L58.0269 40.0603L58.2361 40.0544L58.4419 40.0525L58.7917 40.0588L59.1213 40.0779L59.4306 40.1097L59.7197 40.1542L59.9885 40.2114L60.237 40.2813L60.4652 40.364L60.6731 40.4593L60.9848 40.6462L61.2869 40.8811L61.5794 41.1643L61.8623 41.4955L62.1356 41.875L62.4096 42.3094L62.654 42.6854L62.8688 43.0028L63.054 43.2616L63.2096 43.4619L63.3356 43.6037L63.4303 43.6855L63.6362 43.8557L63.9535 44.1145L64.382 44.4617L64.9219 44.8975L65.242 45.1894L65.5123 45.4891L65.7328 45.7966L65.9035 46.1119L66.0244 46.435L66.108 46.7296L66.1678 47.0359L66.2037 47.3539L66.2156 47.6837L66.2113 47.9073L66.1982 48.1321L66.1764 48.358L66.1459 48.5851L66.1066 48.8133L66.0587 49.0427L66.002 49.2733L65.9366 49.505L65.8625 49.7379L65.7796 49.9719L65.6881 50.2071L65.5878 50.4435L65.4788 50.681L65.3611 50.9197L65.2347 51.1596L65.0995 51.4006L64.9556 51.6428L64.803 51.8861L64.6417 52.1306L64.4717 52.3763L64.2929 52.6231L64.1055 52.8711L63.9093 53.1202L63.7043 53.3705L63.4907 53.622L63.2684 53.8746L63.0373 54.1284L62.7975 54.3834L62.549 54.6395L62.2917 54.8968L62.0258 55.1552L61.7511 55.4148L61.4677 55.6755L61.1756 55.9375L61.5245 56.2048L61.8623 56.4704L62.1892 56.7343L62.5052 56.9965L62.8102 57.257L63.1042 57.5158L63.3873 57.7728L63.6594 58.0282L63.9205 58.2818L64.1707 58.5337L64.4099 58.784L64.6382 59.0325L64.8555 59.2792L65.0619 59.5243L65.2573 59.7677L65.4417 60.0093L65.6152 60.2493L65.7777 60.4875L65.9292 60.724L66.0698 60.9588L66.1994 61.1919L66.3181 61.4233L66.4258 61.6529L66.5225 61.8809L66.6083 62.1071L66.6832 62.3317L66.747 62.5545L66.7999 62.7756L66.8419 62.995" sodipodi:nodetypes="cccccccccccccccccccccccccccccccccccccccccccccccccccccccccccccccccccccccccccccccccccccccccccccccccccccccccccccccccccccccccccccccccccccccccccccccccccccccccccccccccccccccccccccccccccccccccccccccccccccccccccccccccccccccccccccccccccccccccccccccccccccccccccccccccccccccccccccccccccccccccccccccccccccccccccccccccccccccccccccccccccccccccccccccccccccccccccccccccccccccccccccccccccccccccccccccccccccccccccccccccccccccccccccccccccccccccccccccccccccccccccccccccccccccccccccccccccccccccccccccccccccccccccccccccccccccccccccccccccccccccccccccccccc"/>
  <path id="shape01" transform="matrix(0.713681207177158 0 0 0.713681207177159 0.00578128631431696 5.62863741578555)" fill="#ffffff" fill-rule="evenodd" stroke-opacity="0" stroke="#000000" stroke-width="0" stroke-linecap="square" stroke-linejoin="bevel" d="M0 0C7.22605 8.03069 69.8188 7.92514 76.8 0C75.6974 8.03976 76.9539 -0.0053741 74.4 17.5793C67.3565 24.9594 8.75633 25.1161 2.4 17.5793C1.6 11.7195 0.951289 7.96412 0 0Z" sodipodi:nodetypes="ccccc"/>
  <path id="shape2" transform="matrix(0.713681207177158 0 0 0.713681207177159 0 0)" sodipodi:type="arc" sodipodi:rx="38.4081006565063" sodipodi:ry="6.4297956437779" sodipodi:cx="38.4081006565063" sodipodi:cy="6.4297956437779" sodipodi:start="6.28318530717959" sodipodi:end="6.28318530717959" sodipodi:open="true" d="M76.8162 6.4298C76.8162 2.87872 59.6203 -1.35955e-15 38.4081 0C17.1959 1.35955e-15 2.59775e-15 2.87872 0 6.4298C-2.59775e-15 9.98087 17.1959 12.8596 38.4081 12.8596C59.6203 12.8596 76.8162 9.98087 76.8162 6.4298Z" fill="#ffffff" fill-rule="evenodd"/>
  <path id="shape3" transform="matrix(0.713681207177158 0 0 0.713681207177159 29.7569205597576 41.586019507779)" fill="#ffffff" fill-rule="evenodd" stroke-opacity="0" stroke="#000000" stroke-width="0" stroke-linecap="square" stroke-linejoin="bevel" d="M8.88 0C8.05 0.0325 6.6425 0.4325 4.6575 1.2C2.5125 2.0625 0.96 2.91 0 3.7425L0 12.6713C2.08 12.0962 4.12813 10.3363 6.14438 7.39125C8.16063 4.44625 9.0725 1.9825 8.88 0" sodipodi:nodetypes="cccccc"/>
  <path id="shape4" transform="matrix(0.713681207177158 0 0 0.713681207177159 29.7569205597576 31.309010124428)" fill="#ffffff" fill-rule="evenodd" stroke-opacity="0" stroke="#000000" stroke-width="0" stroke-linecap="square" stroke-linejoin="bevel" d="M7.155 0.19125C7.09 0.06375 6.91375 0 6.62625 0C5.88875 0 4.73625 0.38375 3.16875 1.15125C1.60125 1.91875 0.545 2.655 0 3.36L0 8.35125C2.05 6.71875 3.81875 5.05438 5.30625 3.35813C6.79375 1.66188 7.41 0.60625 7.155 0.19125" sodipodi:nodetypes="ccccccc"/>
 </g>
</svg>
